<?xml version="1.0" encoding="UTF-8" standalone="no"?>
<!DOCTYPE svg PUBLIC "-//W3C//DTD SVG 1.1//EN" "http://www.w3.org/Graphics/SVG/1.1/DTD/svg11.dtd">
<svg width="100%" height="100%" viewBox="0 0 1962 347" version="1.1" xmlns="http://www.w3.org/2000/svg" xmlns:xlink="http://www.w3.org/1999/xlink" xml:space="preserve" xmlns:serif="http://www.serif.com/" style="fill-rule:evenodd;clip-rule:evenodd;stroke-linejoin:round;stroke-miterlimit:2;">
    <rect id="Icon" x="-76.557" y="-158.407" width="2168.08" height="628.664" style="fill:none;"/>
    <path d="M105.108,158.983l-53.581,-0c-6.358,-0 -11.916,-1.874 -15.411,-4.284l-2.782,-2.366l-2.464,-3.43l-1.155,-2.999l-0.434,-3.416l-0,-11.759l0.434,-3.417l1.155,-2.999l2.464,-3.429l2.782,-2.366c3.495,-2.41 9.053,-4.284 15.411,-4.284l6.083,-0l0,-16.305l-25.929,-0c-9.006,-0 -16.592,-3.454 -20.474,-7.525l-3.172,-4.655l-1.004,-2.986l-0.364,-3.283l-0,-15.666l0.364,-3.284l1.004,-2.986l3.172,-4.654c3.882,-4.072 11.468,-7.526 20.474,-7.526l187.225,0c9.006,0 16.592,3.454 20.474,7.526l3.172,4.654l1.004,2.986l0.364,3.284l0,15.666l-0.364,3.283l-1.004,2.986l-3.172,4.655c-3.882,4.071 -11.468,7.525 -20.474,7.525l-25.929,-0l-0,16.305l6.083,-0c6.358,-0 11.916,1.874 15.411,4.284l2.782,2.366l2.464,3.429l1.155,2.999l0.434,3.417l0,11.759l-0.434,3.416l-1.155,2.999l-2.464,3.43l-2.782,2.366c-3.495,2.41 -9.053,4.284 -15.411,4.284l-53.581,-0l0,27.922l33.826,-0c3.806,-0 7.32,2.036 9.212,5.338c1.892,3.301 1.872,7.363 -0.052,10.646l-54.342,92.726c-1.905,3.251 -5.391,5.249 -9.159,5.249c-3.768,-0 -7.254,-1.998 -9.16,-5.249l-54.341,-92.726c-1.924,-3.283 -1.944,-7.345 -0.052,-10.646c1.892,-3.302 5.406,-5.338 9.211,-5.338l34.486,-0l0,-27.922Z" style="fill:none;stroke:#fff;stroke-width:13.33px;"/>
    <path d="M130.97,268.491l31.296,-53.417c1.481,-2.528 0.631,-5.782 -1.897,-7.263c-2.528,-1.481 -5.782,-0.631 -7.263,1.897l-31.296,53.417c-1.481,2.528 -0.631,5.782 1.897,7.263c2.528,1.481 5.782,0.631 7.263,-1.897Z" style="fill:#fff;"/>
    <g transform="matrix(1,0,0,1,-6.59644,-518.566)">
        <g transform="matrix(279.985,0,0,279.985,446.508,794.575)">
            <path d="M0.489,-0.28l-0.088,-0.251l-0.088,0.251l0.176,0Zm0.052,0.149l-0.28,0l-0.045,0.131l-0.209,0l0.287,-0.754l0.214,0l0.287,0.754l-0.209,-0l-0.045,-0.131Z" style="fill:#fff;fill-rule:nonzero;"/>
        </g>
        <g transform="matrix(279.985,0,0,279.985,659.017,794.575)">
            <path d="M0.437,-0.331c-0.006,-0.025 -0.018,-0.046 -0.037,-0.061c-0.019,-0.015 -0.041,-0.023 -0.068,-0.023c-0.028,0 -0.051,0.007 -0.069,0.022c-0.017,0.015 -0.028,0.035 -0.033,0.062l0.207,0Zm-0.212,0.105c-0,0.078 0.037,0.117 0.11,0.117c0.039,0 0.069,-0.016 0.089,-0.048l0.175,0c-0.035,0.117 -0.124,0.176 -0.265,0.176c-0.043,0 -0.083,-0.006 -0.119,-0.019c-0.036,-0.013 -0.067,-0.032 -0.093,-0.056c-0.025,-0.024 -0.045,-0.053 -0.059,-0.086c-0.014,-0.033 -0.021,-0.071 -0.021,-0.112c-0,-0.043 0.007,-0.081 0.02,-0.115c0.013,-0.035 0.032,-0.064 0.057,-0.088c0.025,-0.024 0.054,-0.042 0.089,-0.055c0.035,-0.013 0.075,-0.02 0.119,-0.02c0.043,0 0.082,0.007 0.117,0.02c0.035,0.013 0.064,0.031 0.088,0.056c0.024,0.025 0.042,0.055 0.055,0.091c0.013,0.035 0.019,0.075 0.019,0.12l-0,0.019l-0.381,0Z" style="fill:#fff;fill-rule:nonzero;"/>
        </g>
        <g transform="matrix(279.985,0,0,279.985,828.967,794.575)">
            <path d="M0.062,-0.513l0.181,0l0,0.084c0.019,-0.031 0.043,-0.054 0.071,-0.071c0.028,-0.016 0.061,-0.024 0.098,-0.024l0.015,0c0.006,0 0.013,0.001 0.02,0.002l-0,0.173c-0.024,-0.012 -0.05,-0.018 -0.078,-0.018c-0.042,0 -0.074,0.013 -0.095,0.037c-0.021,0.026 -0.031,0.062 -0.031,0.11l-0,0.22l-0.181,0l-0,-0.513Z" style="fill:#fff;fill-rule:nonzero;"/>
        </g>
        <g transform="matrix(279.985,0,0,279.985,949.361,794.575)">
            <path d="M0.233,-0.259c0,0.017 0.003,0.033 0.009,0.048c0.007,0.014 0.015,0.026 0.025,0.037c0.011,0.011 0.023,0.019 0.037,0.025c0.015,0.006 0.03,0.009 0.046,0.009c0.016,0 0.031,-0.003 0.046,-0.009c0.014,-0.006 0.026,-0.014 0.037,-0.025c0.01,-0.011 0.018,-0.023 0.025,-0.037c0.006,-0.015 0.009,-0.03 0.009,-0.047c0,-0.016 -0.003,-0.031 -0.009,-0.045c-0.007,-0.015 -0.015,-0.027 -0.025,-0.038c-0.011,-0.011 -0.023,-0.019 -0.037,-0.025c-0.015,-0.006 -0.03,-0.009 -0.046,-0.009c-0.016,0 -0.031,0.003 -0.045,0.009c-0.015,0.006 -0.027,0.014 -0.037,0.025c-0.011,0.011 -0.019,0.023 -0.026,0.037c-0.006,0.014 -0.009,0.029 -0.009,0.045Zm-0.191,-0.002c-0,-0.038 0.008,-0.074 0.023,-0.106c0.015,-0.034 0.037,-0.062 0.064,-0.087c0.027,-0.024 0.06,-0.043 0.098,-0.057c0.037,-0.014 0.078,-0.021 0.123,-0.021c0.044,0 0.085,0.007 0.123,0.02c0.037,0.014 0.07,0.033 0.098,0.057c0.027,0.025 0.049,0.054 0.064,0.088c0.015,0.033 0.023,0.07 0.023,0.111c0,0.041 -0.008,0.078 -0.023,0.112c-0.016,0.033 -0.038,0.062 -0.065,0.087c-0.027,0.024 -0.06,0.043 -0.099,0.056c-0.038,0.013 -0.079,0.02 -0.124,0.02c-0.044,0 -0.085,-0.007 -0.122,-0.02c-0.037,-0.013 -0.07,-0.032 -0.097,-0.057c-0.027,-0.025 -0.048,-0.054 -0.063,-0.088c-0.015,-0.035 -0.023,-0.073 -0.023,-0.115Z" style="fill:#fff;fill-rule:nonzero;"/>
        </g>
        <g transform="matrix(279.985,0,0,279.985,1134.15,794.575)">
            <path d="M0.062,-0.513l0.181,0l0,0.063c0.049,-0.047 0.105,-0.071 0.166,-0.071c0.076,0 0.134,0.032 0.174,0.096c0.041,-0.065 0.099,-0.097 0.174,-0.097c0.024,0 0.047,0.003 0.068,0.01c0.021,0.007 0.04,0.018 0.055,0.033c0.015,0.015 0.027,0.035 0.036,0.059c0.009,0.024 0.014,0.053 0.014,0.087l-0,0.333l-0.181,-0l-0,-0.253c-0,-0.026 -0.002,-0.047 -0.006,-0.064c-0.003,-0.017 -0.009,-0.03 -0.016,-0.039c-0.007,-0.009 -0.015,-0.016 -0.024,-0.019c-0.009,-0.003 -0.019,-0.005 -0.03,-0.005c-0.058,-0 -0.087,0.042 -0.087,0.127l-0,0.253l-0.181,-0l-0,-0.253c-0,-0.026 -0.002,-0.048 -0.005,-0.065c-0.003,-0.017 -0.008,-0.03 -0.015,-0.04c-0.006,-0.01 -0.014,-0.017 -0.024,-0.021c-0.01,-0.003 -0.022,-0.005 -0.035,-0.005c-0.011,-0 -0.022,0.002 -0.032,0.005c-0.01,0.003 -0.019,0.01 -0.027,0.019c-0.007,0.01 -0.013,0.023 -0.018,0.04c-0.004,0.017 -0.006,0.04 -0.006,0.067l-0,0.253l-0.181,-0l-0,-0.513Z" style="fill:#fff;fill-rule:nonzero;"/>
        </g>
        <g transform="matrix(279.985,0,0,279.985,1400.7,794.575)">
            <path d="M0.23,-0.258c0,0.017 0.003,0.032 0.009,0.047c0.006,0.014 0.014,0.026 0.024,0.037c0.011,0.011 0.023,0.019 0.037,0.025c0.015,0.006 0.03,0.009 0.047,0.009c0.016,0 0.031,-0.003 0.046,-0.009c0.014,-0.006 0.026,-0.014 0.037,-0.025c0.01,-0.011 0.018,-0.023 0.025,-0.037c0.006,-0.014 0.009,-0.029 0.009,-0.045c0,-0.016 -0.003,-0.031 -0.009,-0.045c-0.007,-0.015 -0.015,-0.027 -0.025,-0.038c-0.011,-0.011 -0.023,-0.019 -0.037,-0.025c-0.015,-0.006 -0.03,-0.009 -0.046,-0.009c-0.017,0 -0.032,0.003 -0.046,0.009c-0.015,0.006 -0.027,0.014 -0.037,0.025c-0.011,0.011 -0.019,0.023 -0.025,0.036c-0.006,0.014 -0.009,0.029 -0.009,0.045Zm0.228,-0.255l0.182,-0l0,0.513l-0.182,-0l0,-0.057c-0.039,0.049 -0.091,0.073 -0.157,0.073c-0.037,-0 -0.072,-0.007 -0.103,-0.021c-0.031,-0.013 -0.059,-0.032 -0.082,-0.057c-0.023,-0.025 -0.042,-0.054 -0.055,-0.087c-0.013,-0.033 -0.019,-0.07 -0.019,-0.109c-0,-0.037 0.006,-0.072 0.019,-0.105c0.013,-0.033 0.03,-0.061 0.053,-0.086c0.023,-0.025 0.05,-0.044 0.081,-0.059c0.031,-0.014 0.066,-0.021 0.104,-0.021c0.064,-0 0.117,0.022 0.159,0.067l-0,-0.051Z" style="fill:#fff;fill-rule:nonzero;"/>
        </g>
        <g transform="matrix(279.985,0,0,279.985,1585.77,794.575)">
            <path d="M0.264,-0.362l0,0.362l-0.181,-0l-0,-0.362l-0.06,0l-0,-0.151l0.06,0l-0,-0.154l0.181,0l0,0.154l0.103,0l0,0.151l-0.103,0Z" style="fill:#fff;fill-rule:nonzero;"/>
        </g>
        <g transform="matrix(279.985,0,0,279.985,1679,794.575)">
            <path d="M0.086,-0.055c0,-0.018 0.007,-0.034 0.02,-0.047c0.014,-0.013 0.03,-0.02 0.048,-0.02c0.019,-0 0.035,0.007 0.048,0.02c0.013,0.013 0.02,0.029 0.02,0.048c0,0.019 -0.007,0.035 -0.02,0.048c-0.013,0.013 -0.029,0.02 -0.048,0.02c-0.019,-0 -0.035,-0.007 -0.048,-0.02c-0.013,-0.013 -0.02,-0.029 -0.02,-0.049Z" style="fill:#fff;fill-rule:nonzero;"/>
        </g>
        <g transform="matrix(279.985,0,0,279.985,1754.2,794.575)">
            <path d="M0.179,-0.476l0,0.476l-0.11,-0l0,-0.476l0.11,0Zm-0.126,-0.197c-0,-0.02 0.007,-0.036 0.021,-0.05c0.014,-0.014 0.03,-0.021 0.05,-0.021c0.02,-0 0.037,0.007 0.051,0.021c0.014,0.014 0.021,0.03 0.021,0.05c-0,0.02 -0.007,0.037 -0.021,0.051c-0.014,0.014 -0.031,0.021 -0.05,0.021c-0.02,-0 -0.037,-0.007 -0.051,-0.021c-0.014,-0.014 -0.021,-0.031 -0.021,-0.051Z" style="fill:#fff;fill-rule:nonzero;"/>
        </g>
        <g transform="matrix(279.985,0,0,279.985,1812.73,794.575)">
            <path d="M0.047,-0.241c-0,-0.069 0.024,-0.127 0.074,-0.176c0.049,-0.048 0.109,-0.072 0.179,-0.072c0.071,0 0.131,0.024 0.181,0.073c0.049,0.048 0.073,0.108 0.073,0.179c0,0.071 -0.024,0.131 -0.074,0.179c-0.049,0.048 -0.11,0.072 -0.182,0.072c-0.071,-0 -0.131,-0.025 -0.179,-0.074c-0.048,-0.048 -0.072,-0.108 -0.072,-0.181Zm0.112,0.002c0,0.047 0.013,0.085 0.038,0.113c0.026,0.028 0.061,0.042 0.103,0.042c0.043,-0 0.078,-0.014 0.103,-0.042c0.026,-0.028 0.039,-0.065 0.039,-0.111c-0,-0.046 -0.013,-0.083 -0.039,-0.111c-0.026,-0.028 -0.06,-0.042 -0.103,-0.042c-0.042,0 -0.076,0.014 -0.102,0.042c-0.026,0.028 -0.039,0.064 -0.039,0.109Z" style="fill:#fff;fill-rule:nonzero;"/>
        </g>
    </g>
    <path d="M350.451,8.401l0,329.426c0,4.139 -3.36,7.5 -7.5,7.5c-4.139,-0 -7.5,-3.361 -7.5,-7.5l0,-329.426c0,-4.139 3.361,-7.5 7.5,-7.5c4.14,0 7.5,3.361 7.5,7.5Z" style="fill:#fff;stroke:#fff;stroke-width:1px;stroke-linecap:round;stroke-linejoin:miter;stroke-miterlimit:1.5;"/>
</svg>
